<svg xmlns="http://www.w3.org/2000/svg" xmlns:xlink="http://www.w3.org/1999/xlink" width="153" height="55.767" viewBox="0 0 153 55.767"><defs><clipPath id="a"><rect width="153" height="55.767" fill="none"/></clipPath><clipPath id="b"><path d="M0,0H54.975V55.767H0Z" transform="translate(0 0.233)" fill="none"/></clipPath></defs><g clip-path="url(#a)"><g transform="translate(0 -0.233)"><path d="M0,0H54.975V55.767H0Z" transform="translate(0 0.233)" fill="none"/><g clip-path="url(#b)"><path d="M27.365,55.767a26.873,26.873,0,0,1-13.539-3.654,1.063,1.063,0,0,1-.385-1.436,1.024,1.024,0,0,1,1.41-.392,25,25,0,0,0,31.5-5.322,26.107,26.107,0,0,0-2.19-36.388A24.867,24.867,0,0,0,25.836,2.154,25.66,25.66,0,0,0,2.066,27.57,1.043,1.043,0,0,1,1.033,28.61H1.022A1.043,1.043,0,0,1,0,27.546a28.04,28.04,0,0,1,7.5-18.84A27.038,27.038,0,0,1,45.527,7,28.238,28.238,0,0,1,47.9,46.357a27.022,27.022,0,0,1-18.837,9.357q-.848.053-1.694.053" transform="translate(0.205 0.233)" fill="#e57437"/><path d="M7.386,22.659a1.021,1.021,0,0,1-.731-.308L.3,15.882a1.066,1.066,0,0,1,0-1.488l6.43-6.547A3.8,3.8,0,0,1,9.458,6.7H24.792a4.223,4.223,0,0,1,4.18,4.256,3.445,3.445,0,0,1-3.409,3.471H14.711a1.052,1.052,0,0,1,0-2.1H25.563a1.357,1.357,0,0,0,1.343-1.367A2.135,2.135,0,0,0,24.792,8.8H9.458a1.759,1.759,0,0,0-1.264.533l-5.7,5.8,4.892,4.981,2.227-2.268a1.024,1.024,0,0,1,.73-.308H27.5a2.449,2.449,0,0,0,1.759-.742L40.16,5.7a2.138,2.138,0,0,0,0-2.982,2.048,2.048,0,0,0-2.929,0l-5.8,5.9a1.021,1.021,0,0,1-1.461,0,1.065,1.065,0,0,1,0-1.488l5.8-5.9a4.091,4.091,0,0,1,5.852,0,4.273,4.273,0,0,1,0,5.958l-10.9,11.1a4.483,4.483,0,0,1-3.22,1.358H10.773l-2.655,2.7a1.021,1.021,0,0,1-.731.308" transform="translate(7.581 23.849)" fill="#e57437"/><path d="M12.749,19.049a1.017,1.017,0,0,1-.731-.308L.3,6.814a1.067,1.067,0,0,1,0-1.488L5.231.308a1.021,1.021,0,0,1,1.462,0L18.408,12.236a1.067,1.067,0,0,1,0,1.488l-4.928,5.017A1.014,1.014,0,0,1,12.749,19.049ZM5.962,2.54,2.495,6.07,12.749,16.51l3.467-3.529L5.962,2.54Z" transform="translate(0 35.115)" fill="#e57437"/></g><path d="M0,12H4V0H0Z" transform="translate(63 25)" fill="#2e3738"/><path d="M3.073,7v6.652H0V.136C0,.018.054-.08.251.1L7.926,7V.312H11v13.54c0,.157-.055.216-.252.039L3.073,7" transform="translate(73 25)" fill="#2e3738"/><path d="M4.766,12H0V0H4.766A6.476,6.476,0,0,1,9.215,1.6,5.813,5.813,0,0,1,11,6a5.812,5.812,0,0,1-1.785,4.4A6.477,6.477,0,0,1,4.766,12ZM3.3,2.717V9.283H4.4A3.019,3.019,0,0,0,7.629,6,3.02,3.02,0,0,0,4.4,2.717Z" transform="translate(88 25)" fill="#2e3738"/><path d="M0,12H4V0H0Z" transform="translate(103 25)" fill="#2e3738"/><path d="M2.909,14H0L5.41.105C5.433.038,5.469,0,5.508,0s.075.038.1.105L11,14H7.927l-.589-1.647H3.465L2.91,14Zm2.468-7.19L4.38,9.7H6.391Z" transform="translate(113 25)" fill="#2e3738"/><path d="M3.073,7v6.652H0V.136C0,.018.054-.08.251.1L7.926,7V.312H11v13.54c0,.157-.054.216-.252.039L3.073,7" transform="translate(128 25)" fill="#2e3738"/><path d="M0,11.473,2.445,9.487a3.127,3.127,0,0,0,2.63,1.484c1,0,1.592-.321,1.592-1.083,0-.582-.407-.863-1.241-1.163L3.944,8.183A4.133,4.133,0,0,1,.815,4.071,4,4,0,0,1,5.111,0a5.171,5.171,0,0,1,4.3,1.8L7.482,3.992A2.756,2.756,0,0,0,5.3,3.008c-.815,0-1.222.4-1.222.942,0,.522.278.783.889,1l1.666.6C9.148,6.458,10,7.762,10,9.687,10,12.195,8.555,14,5.222,14A6.081,6.081,0,0,1,0,11.473" transform="translate(143 25)" fill="#2e3738"/><path d="M1.328,1.35H0V0H4V1.35H2.672V6H1.328V1.35" transform="translate(63 17)" fill="#2e3738"/><path d="M4.18,0H6V6H4.18V3.653H1.82V6H0V0H1.82V2.3H4.18V0" transform="translate(71 17)" fill="#2e3738"/><path d="M0,0H3.886V1.35h-2.4v.988h2v1.28h-2V4.65H4V6H0V0" transform="translate(80 17)" fill="#2e3738"/><path d="M23.934,19H20.557a1.019,1.019,0,1,1,0-2.035h2.311V11.911c0-.021,0-.042,0-.064s0-.016,0-.024,0-.02,0-.03c-.03-.958-1.62-2.026-3.855-2.026a6.064,6.064,0,0,0-2.267.415,3.077,3.077,0,0,1-.62,1.252A2.856,2.856,0,0,1,17.87,13.9v4.087A1.044,1.044,0,0,1,16.8,19h-6.52a1.044,1.044,0,0,1-1.067-1.017V14.022c0-.041-.006-.085-.006-.126a2.855,2.855,0,0,1,1.745-2.462,3.036,3.036,0,0,1-.683-1.623A5.571,5.571,0,0,0,7.2,8.706a4.884,4.884,0,0,1-.635.047,4.842,4.842,0,0,1-.635-.047c-2.322.189-3.781,1.375-3.8,2.364,0,.04.007.069.009.1s0,.042,0,.064v5.734H5.948a1.019,1.019,0,1,1,0,2.035H1.077A1.043,1.043,0,0,1,.012,17.983V11.275A1.654,1.654,0,0,1,0,11.093C0,9.506,1.177,8.081,3.147,7.279a4.254,4.254,0,0,1-1.164-2.9A4.489,4.489,0,0,1,6.568,0a4.489,4.489,0,0,1,4.585,4.377,4.25,4.25,0,0,1-1.164,2.9,6.891,6.891,0,0,1,.871.423,3.374,3.374,0,0,1,4.175-.982,3.8,3.8,0,0,1-.184-1.165,4.165,4.165,0,0,1,8.321,0,3.86,3.86,0,0,1-1.139,2.723C23.891,9.006,25,10.331,25,11.82v6.163A1.044,1.044,0,0,1,23.934,19ZM12.018,12.6a1.462,1.462,0,0,0-1.012.358,1.5,1.5,0,0,0-.336.436,1.276,1.276,0,0,0,.2,1.567l.051.051.028.028.021.021.04.041c.074.077.151.154.227.23l.04.04.076.077.146.148c.158.16.366.371.576.579l.026.026.012.011c.252.249.509.5.765.753l.054.053.043.042.065.064.05.049.05.05.138.135c.092.089.18.175.269.264l.518-.507.015-.015.005-.006.02-.019.11-.109.671-.662.014-.014.023-.023.247-.245q.286-.285.57-.572l.087-.087.09-.09c.088-.086.2-.2.312-.312a1.333,1.333,0,0,0,.158-1.634,1.439,1.439,0,0,0-1.218-.726l-.1,0c-.045,0-.083,0-.118,0a1.634,1.634,0,0,0-.847.265l-.014.009-.016.011-.03.022a1.5,1.5,0,0,0-.5.763c-.035-.084-.058-.14-.08-.2a1.381,1.381,0,0,0-.33-.491c-.031-.029-.06-.054-.09-.077l-.011-.008a1.613,1.613,0,0,0-.937-.3h-.081ZM13.54,8.409a1.144,1.144,0,0,0-1.072.707,1.056,1.056,0,0,0-.079.392,1.1,1.1,0,0,0,.689,1.005,1.2,1.2,0,0,0,.462.094,1.128,1.128,0,0,0,1.152-1.1,1.045,1.045,0,0,0-.108-.459A1.163,1.163,0,0,0,13.54,8.409Zm5.473-4.791a1.987,1.987,0,0,0-2.029,1.937,2.031,2.031,0,0,0,4.058,0A1.987,1.987,0,0,0,19.013,3.618ZM6.568,2.036A2.4,2.4,0,0,0,4.117,4.377,2.383,2.383,0,0,0,6.033,6.659a2.607,2.607,0,0,0,.536.058A2.5,2.5,0,0,0,7.1,6.659,2.383,2.383,0,0,0,9.021,4.377,2.4,2.4,0,0,0,6.568,2.036Z" transform="translate(15 8)" fill="#33974d"/></g></g></svg>