<svg xmlns="http://www.w3.org/2000/svg" width="61.688" height="59.941" viewBox="0 0 61.688 59.941"><g transform="translate(0 -0.333)"><path d="M58.582,59.941H34.6V28.967A54.165,54.165,0,0,1,35.923,16.3a25.469,25.469,0,0,1,3.971-9.051,16.721,16.721,0,0,1,6.618-5.431A22.243,22.243,0,0,1,55.776,0c1.069,0,2.892.1,5.912.312V12.3c-8.89.517-13.391,5.075-13.379,13.548l.155,5.448H58.582V59.94Zm-34.6-.006H0V28.959A54.138,54.138,0,0,1,1.324,16.29,25.463,25.463,0,0,1,5.294,7.24a16.722,16.722,0,0,1,6.618-5.43A22.245,22.245,0,0,1,21.176,0h.006c1.546,0,3.954.105,7.158.312V12.3h-.007c-4.855,0-8.547,1.139-10.973,3.385S13.7,21.348,13.708,25.843l.157,5.449H23.98V59.934Z" transform="translate(0 0.333)" fill="#ee7623"/></g></svg>