<svg xmlns="http://www.w3.org/2000/svg" width="86.311" height="86.307" viewBox="0 0 86.311 86.307"><path d="M0,6.966V28.172H7.568L14.5,32.478l5.275,1.979h4.359l1.222-1.979V0L17.746,1.154,7.572,5.726Z" transform="translate(1.246 25.581)" fill="#fceadd"/><rect width="58.652" height="79.98" transform="translate(26.132 4.57)" fill="#fceadd"/><path d="M0,0H35.134V21.742H0Z" transform="translate(38.483 42.934)" fill="#fac6a2"/><path d="M82.135,83.523h-52.9a4.189,4.189,0,0,1-4.176-4.176V58.468H20.613a9.673,9.673,0,0,1-5.392-1.636L9.322,52.9H0V27.845H7.98l7.5-4.284a9.772,9.772,0,0,1,4.836-1.285h4.741V4.176A4.19,4.19,0,0,1,29.233,0H43.154V2.776H29.233a1.4,1.4,0,0,0-1.392,1.392v18.1h2.785V5.568H43.153V8.352H33.409V22.273h2.784a5.568,5.568,0,1,1,0,11.136H33.409V75.171H77.955V8.352H68.276V5.568H80.739V77.955H30.623V33.409H27.839V79.347a1.4,1.4,0,0,0,1.392,1.392h52.9a1.4,1.4,0,0,0,1.391-1.392V4.176a1.4,1.4,0,0,0-1.391-1.392H68.211V0h13.92a4.188,4.188,0,0,1,4.18,4.176V79.347A4.189,4.189,0,0,1,82.135,83.523ZM2.784,30.625V50.113h7.381l6.6,4.4a6.917,6.917,0,0,0,3.856,1.169h4.436V33.409H22.174a9.761,9.761,0,0,1-9.641,8.351V38.976a6.979,6.979,0,0,0,6.96-6.961V30.624h16.7a2.784,2.784,0,1,0,0-5.568H20.316a6.977,6.977,0,0,0-3.453.918l-8.14,4.651Z" transform="translate(0 2.784)" fill="#ee7623"/><path d="M0,0H25.979V2.285H0Z" transform="translate(40.737 47.173)" fill="#ee7623"/><path d="M0,0H25.822V2.285H0Z" transform="translate(45.54 52.741)" fill="#ee7623"/><path d="M0,0H25.979V2.285H0Z" transform="translate(40.737 58.073)" fill="#ee7623"/><path d="M23.665,13.921H4.176A4.182,4.182,0,0,1,0,9.744V4.176A4.182,4.182,0,0,1,4.176,0H23.665a4.182,4.182,0,0,1,4.176,4.176V9.744A4.182,4.182,0,0,1,23.665,13.921Z" transform="translate(41.762 0)" fill="#fac6a2"/><path d="M0,0H2.784V2.784H0Z" transform="translate(47.33 5.568)" fill="#ee7623"/><path d="M0,0H2.784V2.784H0Z" transform="translate(61.25 5.568)" fill="#ee7623"/></svg>